<svg width="1742" height="408" viewBox="0 0 1742 408" fill="none" xmlns="http://www.w3.org/2000/svg">
<path d="M506.91 105.95C506.91 104.17 508.1 102.98 509.88 102.98H547.61C549.39 102.98 550.58 104.17 550.58 105.95V264.31C550.58 265.5 551.17 266.09 552.36 266.09H641.5C643.28 266.09 644.47 267.28 644.47 269.06V302.04C644.47 303.82 643.28 305.01 641.5 305.01H509.88C508.1 305.01 506.91 303.82 506.91 302.04V105.95Z" fill="white"/>
<path d="M745.99 159.38L700.03 302.05C699.43 304.13 698.25 305.02 696.17 305.02H657.25C655.17 305.02 654.58 303.83 655.17 302.05L724.69 105.95C725.28 104.17 726.47 102.98 728.55 102.98H765.99C768.07 102.98 769.26 104.17 769.85 105.95L838.19 302.05C838.78 303.83 838.19 305.02 836.11 305.02H797.48C795.4 305.02 794.21 304.13 793.62 302.05" fill="white"/>
<path d="M861.66 105.95C861.66 104.17 862.85 102.98 864.63 102.98H900.28C902.36 102.98 904.14 103.87 905.33 105.95L976.64 233.12H978.13V105.95C978.13 104.17 979.32 102.98 981.1 102.98H1014.67C1016.45 102.98 1017.64 104.17 1017.64 105.95V302.05C1017.64 303.83 1016.45 305.02 1014.67 305.02H979.31C976.93 305.02 975.45 304.13 974.26 302.05L902.66 175.18H901.18V302.05C901.18 303.83 899.99 305.02 898.21 305.02H864.64C862.86 305.02 861.67 303.83 861.67 302.05V105.95H861.66Z" fill="white"/>
<path d="M1100.83 305.02C1099.05 305.02 1097.86 303.83 1097.86 302.05V143.69C1097.86 142.5 1097.27 141.91 1096.08 141.91H1044.97C1043.19 141.91 1042 140.72 1042 138.94V105.96C1042 104.18 1043.19 102.99 1044.97 102.99H1194.42C1196.2 102.99 1197.39 104.18 1197.39 105.96V138.94C1197.39 140.72 1196.2 141.91 1194.42 141.91H1143.31C1142.12 141.91 1141.53 142.5 1141.53 143.69V302.05C1141.53 303.83 1140.34 305.02 1138.56 305.02H1100.83V305.02Z" fill="white"/>
<path d="M1575 105.95C1575 104.17 1576.19 102.98 1577.97 102.98H1615.7C1617.48 102.98 1618.67 104.17 1618.67 105.95V193.3L1685.82 105.65C1687.31 103.57 1688.5 102.97 1690.87 102.97H1733.95C1735.73 102.97 1736.62 105.05 1735.14 106.83L1673.93 183.49L1740.78 301.45C1741.97 303.53 1741.07 305.01 1739 305.01H1695.32C1692.94 305.01 1692.05 304.41 1690.86 302.34L1645.1 217.36L1618.65 250.64V302.04C1618.65 303.82 1617.46 305.01 1615.68 305.01H1577.95C1576.17 305.01 1574.98 303.82 1574.98 302.04V105.95H1575Z" fill="white"/>
<path d="M1409.84 140.72C1408.06 140.72 1406.87 139.53 1406.87 137.75V105.96C1406.87 104.18 1408.06 102.99 1409.84 102.99H1539.65C1541.43 102.99 1542.62 104.18 1542.62 105.96V137.75C1542.62 139.53 1541.43 140.72 1539.65 140.72H1409.84Z" fill="white"/>
<path d="M1409.98 305.02C1408.2 305.02 1407.01 303.83 1407.01 302.05V270.26C1407.01 268.48 1408.2 267.29 1409.98 267.29H1539.79C1541.57 267.29 1542.76 268.48 1542.76 270.26V302.05C1542.76 303.83 1541.57 305.02 1539.79 305.02H1409.98Z" fill="white"/>
<path d="M1409.98 221.83C1408.2 221.83 1407.01 220.64 1407.01 218.86V187.07C1407.01 185.29 1408.2 184.1 1409.98 184.1H1525.96C1527.74 184.1 1528.93 185.29 1528.93 187.07V218.86C1528.93 220.64 1527.74 221.83 1525.96 221.83H1409.98Z" fill="white"/>
<path d="M1377.74 301.46L1337.93 221.83C1360.21 212.03 1373.88 191.52 1373.88 165.67C1373.88 128.83 1346.55 102.98 1305.25 102.98H1224.73C1222.95 102.98 1221.76 104.17 1221.76 105.95C1221.76 105.95 1221.76 136.54 1221.76 137.75C1221.76 139.33 1223.23 140.71 1224.7 140.71C1226.32 140.71 1267.22 140.71 1267.22 140.71H1276.41H1302.87C1319.51 140.71 1330.21 150.52 1330.21 165.67C1330.21 181.12 1319.51 190.88 1302.87 190.88H1267.22C1266.88 190.88 1234.71 190.88 1224.7 190.88C1223.31 190.88 1221.76 192.34 1221.76 193.83C1221.76 194.46 1221.76 224.88 1221.76 224.88C1221.76 226.35 1223.23 227.82 1224.7 227.82L1267.22 227.83H1294.26L1329.02 302.04C1329.91 304.12 1330.8 305.01 1333.48 305.01H1375.67C1377.74 305.02 1378.63 303.24 1377.74 301.46Z" fill="white"/>
<path d="M204.42 0.659945C92.1199 0.439945 0.899964 91.2899 0.679964 203.6C0.459964 315.9 91.32 407.12 203.62 407.34C315.92 407.56 407.14 316.71 407.36 204.4C407.58 92.1 316.72 0.879945 204.42 0.659945ZM319.63 325.84C319.47 326 319.3 326.15 319.13 326.31C318.63 326.78 318.13 327.25 317.62 327.71C308.29 336.32 297.98 343.88 286.88 350.21L286.82 347.63C284.95 270.14 281.4 129.2 278.62 55.89L278.53 53.58C280.02 54.32 281.51 55.09 282.98 55.88C282.98 55.83 282.98 55.7799 282.97 55.7199C356.5 94.8099 391.35 183.67 361.08 263.54C351.84 287.96 337.45 308.98 319.63 325.84ZM35.61 203.78C35.79 112.69 108.4 38.6699 198.82 36.0999C198.91 36.0999 198.99 36.1 199.08 36.09C199.66 36.07 200.24 36.07 200.82 36.06C215.44 35.77 230.26 37.38 244.94 41.07C244.93 41.08 244.91 41.1 244.9 41.12C246.51 41.53 248.12 41.9599 249.71 42.4099L248.08 44.0999C197.02 97.0599 100.11 200.18 46.88 256.94L44.83 259.12C38.83 241.78 35.57 223.17 35.61 203.78ZM245.23 183.23L201.16 211.56L186.83 161.41L241.17 106.16L245.23 183.23ZM184.69 251.62L227.54 370.53C219.64 371.65 211.57 372.23 203.37 372.21C152.43 372.11 106.83 349.35 76.07 313.5L184.69 251.62Z" fill="white"/>
</svg>
