<svg xmlns="http://www.w3.org/2000/svg" width="233.361" height="72" viewBox="0 0 233.361 72">
  <g id="Group_160" data-name="Group 160" transform="translate(-632.793 -559.57)">
    <g id="Group_157" data-name="Group 157" transform="translate(632.793 559.57)">
      <path id="Path_36" data-name="Path 36" d="M632.793,560.133a.532.532,0,0,1,.563-.563H640.5a.532.532,0,0,1,.563.563V590.12a.3.3,0,0,0,.337.337h16.878a.531.531,0,0,1,.562.563v6.245a.532.532,0,0,1-.562.563H633.356a.532.532,0,0,1-.563-.563Z" transform="translate(-632.793 -559.57)" fill="#fff"/>
      <path id="Path_37" data-name="Path 37" d="M798.068,570.249l-8.7,27.016a.678.678,0,0,1-.732.563h-7.37c-.394,0-.506-.225-.394-.563l13.165-37.132a.729.729,0,0,1,.732-.563h7.089a.729.729,0,0,1,.731.563l12.94,37.132c.112.338,0,.563-.394.563h-7.314a.678.678,0,0,1-.731-.563" transform="translate(-752.796 -559.57)" fill="#fff"/>
      <path id="Path_38" data-name="Path 38" d="M987.535,560.133a.532.532,0,0,1,.563-.563h6.751a1.044,1.044,0,0,1,.956.563l13.5,24.08h.282v-24.08a.532.532,0,0,1,.563-.563h6.358a.532.532,0,0,1,.563.563v37.132a.532.532,0,0,1-.562.563h-6.7a.991.991,0,0,1-.957-.563L995.3,573.241h-.281v24.023a.532.532,0,0,1-.563.563H988.1a.532.532,0,0,1-.563-.563Z" transform="translate(-920.488 -559.57)" fill="#fff"/>
      <path id="Path_39" data-name="Path 39" d="M1179.019,597.828a.531.531,0,0,1-.563-.563V567.278a.3.3,0,0,0-.337-.338h-9.677a.532.532,0,0,1-.563-.563v-6.245a.532.532,0,0,1,.563-.563h28.3a.531.531,0,0,1,.562.563v6.245a.531.531,0,0,1-.562.563h-9.677a.3.3,0,0,0-.337.338v29.987a.532.532,0,0,1-.562.563Z" transform="translate(-1066.747 -559.57)" fill="#fff"/>
      <path id="Path_40" data-name="Path 40" d="M1700.883,560.133a.532.532,0,0,1,.563-.563h7.145a.532.532,0,0,1,.563.563v16.541l12.715-16.6a1,1,0,0,1,.957-.507h8.157c.338,0,.506.394.225.732l-11.59,14.515,12.659,22.336c.225.393.056.675-.338.675h-8.271a.8.8,0,0,1-.844-.506l-8.664-16.091-5.008,6.3v9.733a.532.532,0,0,1-.563.563h-7.145a.532.532,0,0,1-.562-.563Z" transform="translate(-1499.017 -559.57)" fill="#fff"/>
      <path id="Path_41" data-name="Path 41" d="M871.874,615.966" transform="translate(-826.603 -605.287)" fill="#fff"/>
      <path id="Rectangle_130" data-name="Rectangle 130" d="M2.971,0H22.733a2.972,2.972,0,0,1,2.972,2.972v1.2a2.971,2.971,0,0,1-2.971,2.971H2.971A2.971,2.971,0,0,1,0,4.174v-1.2A2.971,2.971,0,0,1,2.971,0Z" transform="translate(170.099 0)" fill="#fff"/>
      <path id="Rectangle_131" data-name="Rectangle 131" d="M2.972,0H22.733a2.973,2.973,0,0,1,2.973,2.973v1.2a2.969,2.969,0,0,1-2.969,2.969H2.972A2.972,2.972,0,0,1,0,4.173v-1.2A2.972,2.972,0,0,1,2.972,0Z" transform="translate(170.125 31.112)" fill="#fff"/>
      <path id="Rectangle_132" data-name="Rectangle 132" d="M2.971,0H20.114a2.972,2.972,0,0,1,2.972,2.972v1.2a2.971,2.971,0,0,1-2.971,2.971H2.97A2.97,2.97,0,0,1,0,4.175v-1.2A2.971,2.971,0,0,1,2.971,0Z" transform="translate(170.128 15.36)" fill="#fff"/>
      <path id="Path_42" data-name="Path 42" d="M1377.166,597.153l-7.539-15.078a11.206,11.206,0,0,0,6.807-10.633c0-6.977-5.175-11.871-13-11.871h-15.246a.531.531,0,0,0-.562.563v6.022a.587.587,0,0,0,.557.561h14.8c3.151,0,5.176,1.857,5.176,4.726,0,2.925-2.026,4.774-5.176,4.774h-14.8a.61.61,0,0,0-.557.56v5.879a.6.6,0,0,0,.557.557l8.051,0h5.12l6.583,14.052a.761.761,0,0,0,.844.563h7.989A.433.433,0,0,0,1377.166,597.153Z" transform="translate(-1212.524 -559.57)" fill="#fff"/>
    </g>
    <g id="Group_159" data-name="Group 159" transform="translate(691.44 616.939)">
      <g id="Group_158" data-name="Group 158" transform="translate(0 0)">
        <path id="Path_43" data-name="Path 43" d="M943.916,874.357a19.172,19.172,0,0,1,0-7.753c.729-2.293,2.689-3.439,5.169-3.439s4.439,1.146,5.169,3.439a19.16,19.16,0,0,1,0,7.753c-.729,2.292-2.688,3.439-5.169,3.439S944.645,876.649,943.916,874.357Zm7.4-.834a20.3,20.3,0,0,0,0-6.086,2.372,2.372,0,0,0-4.46,0,20.325,20.325,0,0,0,0,6.086,2.372,2.372,0,0,0,4.46,0Z" transform="translate(-943.52 -863.165)" fill="#fff"/>
        <path id="Path_44" data-name="Path 44" d="M1014.623,864.584a.2.2,0,0,1,.208-.208h2.5a.387.387,0,0,1,.354.208l5,8.92h.1v-8.92a.2.2,0,0,1,.208-.208h2.355a.2.2,0,0,1,.208.208V878.34a.2.2,0,0,1-.208.208h-2.48a.367.367,0,0,1-.354-.208l-5.023-8.9h-.1v8.9a.2.2,0,0,1-.208.208h-2.355a.2.2,0,0,1-.208-.208Z" transform="translate(-1001.159 -864.147)" fill="#fff"/>
        <path id="Path_45" data-name="Path 45" d="M1086.717,864.584a.2.2,0,0,1,.208-.208h2.647a.2.2,0,0,1,.208.208v11.109a.111.111,0,0,0,.125.125h6.253a.2.2,0,0,1,.208.208v2.313a.2.2,0,0,1-.208.208h-9.233a.2.2,0,0,1-.208-.208Z" transform="translate(-1059.602 -864.147)" fill="#fff"/>
        <path id="Path_46" data-name="Path 46" d="M1147.253,864.584a.2.2,0,0,1,.208-.208h2.647a.2.2,0,0,1,.208.208V878.34a.2.2,0,0,1-.208.208h-2.647a.2.2,0,0,1-.208-.208Z" transform="translate(-1108.675 -864.147)" fill="#fff"/>
        <path id="Path_47" data-name="Path 47" d="M1177.741,864.584a.2.2,0,0,1,.208-.208h2.5a.387.387,0,0,1,.354.208l5,8.92h.1v-8.92a.2.2,0,0,1,.208-.208h2.355a.2.2,0,0,1,.208.208V878.34a.2.2,0,0,1-.208.208h-2.48a.367.367,0,0,1-.354-.208l-5.023-8.9h-.1v8.9a.2.2,0,0,1-.208.208h-2.355a.2.2,0,0,1-.208-.208Z" transform="translate(-1133.39 -864.147)" fill="#fff"/>
        <path id="Path_48" data-name="Path 48" d="M1249.835,864.584a.2.2,0,0,1,.208-.208h9.087a.2.2,0,0,1,.208.208v2.23a.2.2,0,0,1-.208.208h-6.107a.11.11,0,0,0-.125.125v2.814a.11.11,0,0,0,.125.125h5.085a.2.2,0,0,1,.209.208V872.5a.2.2,0,0,1-.209.208h-5.085a.111.111,0,0,0-.125.125v2.939a.11.11,0,0,0,.125.125h6.107a.2.2,0,0,1,.208.209v2.23a.2.2,0,0,1-.208.208h-9.087a.2.2,0,0,1-.208-.208Z" transform="translate(-1191.832 -864.147)" fill="#fff"/>
        <path id="Path_49" data-name="Path 49" d="M1338,875.42a.391.391,0,0,1,.1-.292l4.981-5.919a2.9,2.9,0,0,0,.834-1.959,1.489,1.489,0,0,0-1.542-1.626c-.959,0-1.542.584-1.667,1.667,0,.125-.083.187-.229.167l-2.293-.375a.2.2,0,0,1-.167-.25c.146-1.959,1.73-3.668,4.46-3.668,2.709,0,4.356,1.751,4.356,4.043a5.026,5.026,0,0,1-1.438,3.439l-3.731,4.4v.042h4.96a.2.2,0,0,1,.208.208v2.063a.2.2,0,0,1-.208.208h-8.42a.2.2,0,0,1-.208-.208Z" transform="translate(-1263.3 -863.165)" fill="#fff"/>
        <path id="Path_50" data-name="Path 50" d="M1398.424,870.48c0-3.147.1-3.793.313-4.418a4.6,4.6,0,0,1,8.545,0c.208.625.313,1.271.313,4.418s-.1,3.793-.312,4.418a4.6,4.6,0,0,1-8.545,0C1398.528,874.273,1398.424,873.627,1398.424,870.48Zm4.585,4.856a1.359,1.359,0,0,0,1.438-.959c.125-.375.167-.792.167-3.9s-.042-3.522-.167-3.9a1.359,1.359,0,0,0-1.438-.959,1.344,1.344,0,0,0-1.438.959c-.125.375-.167.792-.167,3.9s.042,3.522.167,3.9A1.344,1.344,0,0,0,1403.009,875.336Z" transform="translate(-1312.285 -863.165)" fill="#fff"/>
        <path id="Path_51" data-name="Path 51" d="M1460.392,875.42a.39.39,0,0,1,.1-.292l4.981-5.919a2.9,2.9,0,0,0,.834-1.959,1.489,1.489,0,0,0-1.542-1.626c-.959,0-1.542.584-1.667,1.667,0,.125-.084.187-.23.167l-2.292-.375a.2.2,0,0,1-.167-.25c.146-1.959,1.73-3.668,4.46-3.668,2.709,0,4.356,1.751,4.356,4.043a5.026,5.026,0,0,1-1.438,3.439l-3.731,4.4v.042h4.96a.2.2,0,0,1,.208.208v2.063a.2.2,0,0,1-.208.208h-8.42a.2.2,0,0,1-.208-.208Z" transform="translate(-1362.519 -863.165)" fill="#fff"/>
        <path id="Path_52" data-name="Path 52" d="M1530.275,867.669h-.042l-2.251,1.542c-.125.083-.229.042-.229-.125V866.5a.338.338,0,0,1,.146-.292l2.376-1.709a.582.582,0,0,1,.375-.125h2.334a.2.2,0,0,1,.208.208V878.34a.2.2,0,0,1-.208.208h-2.5a.2.2,0,0,1-.208-.208Z" transform="translate(-1417.125 -864.147)" fill="#fff"/>
      </g>
    </g>
  </g>
</svg>
